# xmcd CD database file
#
# Track frame offsets:
#	150
#	16323
#	33287
#	52395
#	81732
#	106839
#	127966
#	156165
#	182413
#	219530
#	236423
#	259929
#	289785
#	317821
#	333721
#
# Disc length: 4639 seconds
#
# Revision: 0
# Processed by: cddbd v1.5.1PL2 Copyright (c) Steve Scherf et al.
# Submitted via: CDex 1.70beta1
#
DISCID=da121d0f
DTITLE=Various Artist - Jazzdancer
DYEAR=2006
DGENRE=Jazz
TTITLE0=Michel Legrand and Co - La Pasionaria
TTITLE1=Schema Sextet - Lothar
TTITLE2=Louis Hayes - My Favorite Things
TTITLE3=Quasimode - Down in the Village
TTITLE4=Gerardo Frisina - Cortante
TTITLE5=Was a bee - This is what you are
TTITLE6=The invisible session - Heroes of the Conquest
TTITLE7=Doctor Abstract - Struck on Jazz
TTITLE8=Nicola Conte and Gianluca Petralla
TTITLE9=Indigo Jam Unit - Palette
TTITLE10=Paolo Fedreghini and Marco Bianchi - Circus in C-Minor
TTITLE11=Gerardo Frisina - Gica's Dance - The Nicola Conte Jazz Combo
TTITLE12=Big Bang - Yo yo Jazz
TTITLE13=Jazbeat - Turnaround
TTITLE14=Max Sedgley - Happy (In Rio) Spiritual South remix
EXTD=YEAR: 2006
EXTT0=
EXTT1=
EXTT2=
EXTT3=
EXTT4=
EXTT5=
EXTT6=
EXTT7=
EXTT8=
EXTT9=
EXTT10=
EXTT11=
EXTT12=
EXTT13=
EXTT14=
PLAYORDER=
